<svg width="1200" viewBox="0 0 680 388" role="img" xmlns="http://www.w3.org/2000/svg">
<title>T3, IGI Airport — Wi-Fi network analysis, October 2016</title>
<desc>Top-down floor plan of Terminal 3 showing 8 Cisco access points with concentric signal coverage rings</desc>
<rect width="680" height="388" fill="#0B1622"/>
<rect x="42" y="88" width="596" height="200" rx="3" fill="#0E2032" stroke="#1C3C58" stroke-width="1"/>
<rect x="104" y="66" width="46" height="22" rx="2" fill="#0E2032" stroke="#1C3C58" stroke-width="0.8"/>
<rect x="189" y="66" width="46" height="22" rx="2" fill="#0E2032" stroke="#1C3C58" stroke-width="0.8"/>
<rect x="274" y="66" width="46" height="22" rx="2" fill="#0E2032" stroke="#1C3C58" stroke-width="0.8"/>
<rect x="359" y="66" width="46" height="22" rx="2" fill="#0E2032" stroke="#1C3C58" stroke-width="0.8"/>
<rect x="444" y="66" width="46" height="22" rx="2" fill="#0E2032" stroke="#1C3C58" stroke-width="0.8"/>
<rect x="529" y="66" width="46" height="22" rx="2" fill="#0E2032" stroke="#1C3C58" stroke-width="0.8"/>
<rect x="104" y="288" width="46" height="22" rx="2" fill="#0E2032" stroke="#1C3C58" stroke-width="0.8"/>
<rect x="189" y="288" width="46" height="22" rx="2" fill="#0E2032" stroke="#1C3C58" stroke-width="0.8"/>
<rect x="274" y="288" width="46" height="22" rx="2" fill="#0E2032" stroke="#1C3C58" stroke-width="0.8"/>
<rect x="359" y="288" width="46" height="22" rx="2" fill="#0E2032" stroke="#1C3C58" stroke-width="0.8"/>
<rect x="444" y="288" width="46" height="22" rx="2" fill="#0E2032" stroke="#1C3C58" stroke-width="0.8"/>
<rect x="529" y="288" width="46" height="22" rx="2" fill="#0E2032" stroke="#1C3C58" stroke-width="0.8"/>
<rect x="210" y="106" width="260" height="30" rx="1" fill="none" stroke="#1A3A55" stroke-width="0.6" stroke-dasharray="3,5"/>
<text x="340" y="125" text-anchor="middle" font-family="'Courier New',monospace" font-size="9" fill="#20486A" letter-spacing="1.5">CHECK-IN COUNTERS</text>
<line x1="42" y1="190" x2="638" y2="190" stroke="#182E44" stroke-width="0.6" stroke-dasharray="6,8"/>
<circle cx="105" cy="148" r="78" fill="none" stroke="#1AAF7A" stroke-width="0.8" opacity="0.07"/>
<circle cx="105" cy="148" r="55" fill="none" stroke="#1AAF7A" stroke-width="1.0" opacity="0.16"/>
<circle cx="105" cy="148" r="35" fill="none" stroke="#1AAF7A" stroke-width="1.2" opacity="0.30"/>
<circle cx="105" cy="148" r="18" fill="none" stroke="#1AAF7A" stroke-width="1.4" opacity="0.52"/>
<circle cx="105" cy="148" r="8" fill="#3AFFA0" opacity="0.20"/>
<circle cx="105" cy="148" r="4" fill="#3AFFA0"/>
<circle cx="225" cy="148" r="78" fill="none" stroke="#1AAF7A" stroke-width="0.8" opacity="0.07"/>
<circle cx="225" cy="148" r="55" fill="none" stroke="#1AAF7A" stroke-width="1.0" opacity="0.16"/>
<circle cx="225" cy="148" r="35" fill="none" stroke="#1AAF7A" stroke-width="1.2" opacity="0.30"/>
<circle cx="225" cy="148" r="18" fill="none" stroke="#1AAF7A" stroke-width="1.4" opacity="0.52"/>
<circle cx="225" cy="148" r="8" fill="#3AFFA0" opacity="0.20"/>
<circle cx="225" cy="148" r="4" fill="#3AFFA0"/>
<circle cx="345" cy="148" r="78" fill="none" stroke="#1AAF7A" stroke-width="0.8" opacity="0.07"/>
<circle cx="345" cy="148" r="55" fill="none" stroke="#1AAF7A" stroke-width="1.0" opacity="0.16"/>
<circle cx="345" cy="148" r="35" fill="none" stroke="#1AAF7A" stroke-width="1.2" opacity="0.30"/>
<circle cx="345" cy="148" r="18" fill="none" stroke="#1AAF7A" stroke-width="1.4" opacity="0.52"/>
<circle cx="345" cy="148" r="8" fill="#3AFFA0" opacity="0.20"/>
<circle cx="345" cy="148" r="4" fill="#3AFFA0"/>
<circle cx="465" cy="148" r="78" fill="none" stroke="#1AAF7A" stroke-width="0.8" opacity="0.07"/>
<circle cx="465" cy="148" r="55" fill="none" stroke="#1AAF7A" stroke-width="1.0" opacity="0.16"/>
<circle cx="465" cy="148" r="35" fill="none" stroke="#1AAF7A" stroke-width="1.2" opacity="0.30"/>
<circle cx="465" cy="148" r="18" fill="none" stroke="#1AAF7A" stroke-width="1.4" opacity="0.52"/>
<circle cx="465" cy="148" r="8" fill="#3AFFA0" opacity="0.20"/>
<circle cx="465" cy="148" r="4" fill="#3AFFA0"/>
<circle cx="575" cy="148" r="78" fill="none" stroke="#1AAF7A" stroke-width="0.8" opacity="0.07"/>
<circle cx="575" cy="148" r="55" fill="none" stroke="#1AAF7A" stroke-width="1.0" opacity="0.16"/>
<circle cx="575" cy="148" r="35" fill="none" stroke="#1AAF7A" stroke-width="1.2" opacity="0.30"/>
<circle cx="575" cy="148" r="18" fill="none" stroke="#1AAF7A" stroke-width="1.4" opacity="0.52"/>
<circle cx="575" cy="148" r="8" fill="#3AFFA0" opacity="0.20"/>
<circle cx="575" cy="148" r="4" fill="#3AFFA0"/>
<circle cx="160" cy="240" r="78" fill="none" stroke="#1AAF7A" stroke-width="0.8" opacity="0.07"/>
<circle cx="160" cy="240" r="55" fill="none" stroke="#1AAF7A" stroke-width="1.0" opacity="0.16"/>
<circle cx="160" cy="240" r="35" fill="none" stroke="#1AAF7A" stroke-width="1.2" opacity="0.30"/>
<circle cx="160" cy="240" r="18" fill="none" stroke="#1AAF7A" stroke-width="1.4" opacity="0.52"/>
<circle cx="160" cy="240" r="8" fill="#3AFFA0" opacity="0.20"/>
<circle cx="160" cy="240" r="4" fill="#3AFFA0"/>
<circle cx="340" cy="240" r="78" fill="none" stroke="#1AAF7A" stroke-width="0.8" opacity="0.07"/>
<circle cx="340" cy="240" r="55" fill="none" stroke="#1AAF7A" stroke-width="1.0" opacity="0.16"/>
<circle cx="340" cy="240" r="35" fill="none" stroke="#1AAF7A" stroke-width="1.2" opacity="0.30"/>
<circle cx="340" cy="240" r="18" fill="none" stroke="#1AAF7A" stroke-width="1.4" opacity="0.52"/>
<circle cx="340" cy="240" r="8" fill="#3AFFA0" opacity="0.20"/>
<circle cx="340" cy="240" r="4" fill="#3AFFA0"/>
<circle cx="520" cy="240" r="78" fill="none" stroke="#1AAF7A" stroke-width="0.8" opacity="0.07"/>
<circle cx="520" cy="240" r="55" fill="none" stroke="#1AAF7A" stroke-width="1.0" opacity="0.16"/>
<circle cx="520" cy="240" r="35" fill="none" stroke="#1AAF7A" stroke-width="1.2" opacity="0.30"/>
<circle cx="520" cy="240" r="18" fill="none" stroke="#1AAF7A" stroke-width="1.4" opacity="0.52"/>
<circle cx="520" cy="240" r="8" fill="#3AFFA0" opacity="0.20"/>
<circle cx="520" cy="240" r="4" fill="#3AFFA0"/>
<text x="340" y="30" text-anchor="middle" font-family="'Segoe UI',Arial,sans-serif" font-size="18" font-weight="700" fill="#C0E0FF">T3, IGI Airport — Wi-Fi Network Analysis</text>
<text x="340" y="50" text-anchor="middle" font-family="'Segoe UI',Arial,sans-serif" font-size="11" fill="#2E607E" letter-spacing="1.5">OCTOBER 2016  ·  IEEE 802.11n  ·  2.4 GHz  ·  CISCO CONTROLLER-BASED</text>
<rect x="48" y="320" width="178" height="26" rx="3" fill="#0E2032" stroke="#1C3C58" stroke-width="0.8"/>
<text x="137" y="337" text-anchor="middle" font-family="'Courier New',monospace" font-size="10" fill="#48A8C8">SSID: Tata Docomo Wi-Fi</text>
<rect x="251" y="320" width="178" height="26" rx="3" fill="#0E2032" stroke="#1C3C58" stroke-width="0.8"/>
<text x="340" y="337" text-anchor="middle" font-family="'Courier New',monospace" font-size="10" fill="#48A8C8">Signal: −57 dBm  ·  Ch 6</text>
<rect x="454" y="320" width="178" height="26" rx="3" fill="#0E2032" stroke="#1C3C58" stroke-width="0.8"/>
<text x="543" y="337" text-anchor="middle" font-family="'Courier New',monospace" font-size="10" fill="#48A8C8">22 Mbps ↓  ·  32 Mbps ↑</text>
<text x="340" y="368" text-anchor="middle" font-family="'Segoe UI',Arial,sans-serif" font-size="10" fill="#1E4060">Cisco lightweight APs  ·  CAPWAP-tunnelled to central WLC  ·  RFC 6598 CGNAT</text>
</svg>
